<svg width="200" height="200" viewBox="0 0 200 200" fill="none" xmlns="http://www.w3.org/2000/svg">
<path d="M0 50C0 22.3858 22.3858 0 50 0V0C77.6142 0 100 22.3858 100 50V100H50C22.3858 100 0 77.6142 0 50V50Z" fill="#ABBEFF"/>
<path d="M0 150C0 122.386 22.3858 100 50 100H100V150C100 177.614 77.6142 200 50 200V200C22.3858 200 0 177.614 0 150V150Z" fill="#8DA6FF"/>
<path d="M100 50C100 22.3858 122.386 0 150 0V0C177.614 0 200 22.3858 200 50V50C200 77.6142 177.614 100 150 100H100V50Z" fill="#6183FF"/>
</svg>
